<?xml version="1.0" standalone="no"?>
<!DOCTYPE svg PUBLIC "-//W3C//DTD SVG 20010904//EN"
 "http://www.w3.org/TR/2001/REC-SVG-20010904/DTD/svg10.dtd">
<svg version="1.0" xmlns="http://www.w3.org/2000/svg"
 width="512.000000pt" height="512.000000pt" viewBox="0 0 512.000000 512.000000"
 preserveAspectRatio="xMidYMid meet">

<g transform="translate(0.000000,512.000000) scale(0.100000,-0.100000)"
fill="#000000" stroke="none">
<path d="M1 3928 c1 -656 4 -1179 6 -1163 57 478 230 894 522 1254 305 379
733 661 1204 797 141 41 160 41 192 9 56 -55 20 -114 -87 -140 -363 -88 -726
-290 -1006 -559 -349 -336 -566 -752 -659 -1261 -25 -140 -25 -564 0 -710 141
-805 658 -1446 1398 -1735 56 -22 107 -40 111 -40 5 0 -44 77 -108 172 -126
184 -138 215 -99 258 23 26 85 27 107 3 9 -10 95 -136 192 -280 108 -161 176
-272 176 -287 0 -51 -24 -64 -295 -150 -143 -45 -267 -85 -275 -88 -8 -4 830
-7 1863 -7 l1877 -1 0 2560 0 2560 -830 0 c-818 0 -831 0 -820 -19 14 -27 13
-63 -4 -86 -8 -12 -99 -56 -215 -105 -110 -46 -197 -87 -193 -91 4 -4 45 -19
92 -34 725 -235 1312 -837 1535 -1572 36 -117 79 -312 71 -320 -4 -4 -102 47
-147 79 -18 12 -28 30 -33 59 -13 83 -99 317 -166 454 -220 452 -579 814
-1025 1035 -146 73 -314 137 -292 112 8 -9 57 -70 111 -135 80 -99 96 -124 96
-153 0 -72 -81 -101 -132 -46 -73 77 -399 488 -404 509 -13 52 16 71 307 195
l274 117 -1672 1 -1673 0 1 -1192z m2319 378 c0 -2 -24 -18 -54 -35 -139 -78
-337 -332 -474 -607 -53 -108 -97 -213 -91 -218 2 -2 42 4 89 15 134 30 344
58 483 65 l127 7 0 389 0 388 55 0 55 0 0 -389 0 -388 129 -7 c143 -7 339 -34
476 -65 49 -11 92 -18 94 -15 10 9 -77 203 -138 308 -159 275 -283 425 -429
521 -23 15 -41 29 -39 31 1 2 48 -3 102 -11 l100 -13 84 -89 c150 -158 339
-473 420 -699 l33 -92 101 -37 c167 -62 437 -207 437 -234 0 -6 -19 -23 -42
-39 l-41 -29 -51 35 c-58 39 -296 157 -340 168 -25 6 -28 5 -22 -11 11 -29 54
-255 62 -321 l6 -61 -53 -29 -54 -29 -2 50 c-2 97 -69 425 -89 445 -15 15
-209 60 -347 81 -73 11 -192 22 -264 26 l-133 6 0 -426 0 -427 315 0 315 0 0
-55 0 -55 -315 0 -315 0 0 -430 0 -430 93 6 c210 13 534 63 547 84 3 4 12 -20
20 -55 9 -35 13 -62 10 -60 -3 2 -37 -3 -75 -11 -131 -28 -330 -54 -462 -61
l-133 -6 0 -394 0 -393 -55 0 -55 0 0 393 0 394 -132 6 c-176 9 -438 48 -550
83 -26 8 -23 -7 23 -115 94 -221 290 -518 418 -633 22 -21 65 -54 96 -74 30
-20 54 -39 51 -41 -2 -2 -46 2 -97 8 l-94 12 -64 61 c-158 152 -360 481 -451
734 l-32 89 -51 18 c-234 81 -530 248 -722 405 -92 76 -101 87 -109 140 -4 25
-9 61 -13 80 -6 35 -6 35 78 -45 172 -164 495 -365 731 -455 26 -10 48 -16 48
-14 0 2 -9 41 -19 86 -38 167 -71 422 -71 554 l0 64 -390 0 -390 0 0 55 0 55
388 0 389 0 6 125 c7 136 36 350 66 485 11 47 17 87 15 89 -12 13 -271 -113
-422 -205 -159 -98 -256 -170 -350 -261 l-84 -81 7 51 c14 106 22 123 90 181
189 160 502 342 727 421 l76 27 27 76 c36 105 141 318 210 427 75 120 181 258
248 324 53 52 57 53 138 66 91 14 129 17 129 11z m1710 -1070 c0 -2 -8 -10
-17 -17 -16 -13 -17 -12 -4 4 13 16 21 21 21 13z m207 -358 c117 -85 276 -179
442 -261 80 -40 150 -81 158 -93 12 -19 14 -78 10 -386 -4 -410 -5 -417 -83
-573 -107 -216 -321 -411 -556 -506 l-80 -32 -52 18 c-294 103 -553 361 -649
647 -19 58 -21 90 -24 432 -3 203 -2 380 2 393 4 19 29 35 111 74 184 85 361
191 548 324 59 43 64 42 173 -37z m-1004 -1418 c18 -38 31 -67 29 -65 -2 2
-26 -37 -52 -88 -95 -185 -222 -370 -347 -505 -50 -53 -50 -53 -143 -68 -120
-19 -137 -16 -80 18 70 41 171 139 250 242 90 119 218 332 267 447 21 49 39
89 40 89 2 0 18 -31 36 -70z m717 -683 l72 -33 -93 -78 c-187 -155 -437 -304
-658 -391 -116 -45 -322 -105 -362 -105 -40 0 -69 32 -69 75 0 49 25 69 111
90 273 66 632 246 844 424 33 27 65 50 71 50 6 1 44 -14 84 -32z"/>
<path d="M2170 3413 c-159 -16 -423 -66 -493 -92 -20 -8 -28 -24 -45 -88 -42
-156 -77 -405 -84 -596 l-3 -67 428 0 427 0 0 425 0 425 -97 -2 c-54 0 -114
-3 -133 -5z"/>
<path d="M1548 2393 c6 -186 34 -389 78 -575 l25 -107 127 -30 c138 -33 290
-57 417 -66 44 -3 108 -8 143 -11 l62 -5 0 431 0 430 -427 0 -428 0 3 -67z"/>
<path d="M4341 2179 c-56 -44 -172 -134 -259 -200 -179 -137 -168 -136 -203
-14 -11 39 -22 76 -25 83 -2 7 -14 17 -27 23 -19 9 -32 7 -62 -7 -64 -30 -64
-42 1 -224 32 -89 64 -168 72 -176 36 -36 61 -21 369 222 164 130 306 245 316
256 28 33 22 81 -12 101 -16 9 -38 17 -49 17 -10 0 -65 -36 -121 -81z"/>
<path d="M1 1143 l-1 -1143 615 0 c606 0 616 0 605 19 -15 29 -12 66 8 89 11
14 80 41 196 77 l180 57 -87 34 c-293 113 -593 309 -822 539 -386 386 -620
876 -688 1440 -2 17 -5 -484 -6 -1112z"/>
</g>
</svg>
